<svg width="250" height="251" viewBox="0 0 250 251" fill="none" xmlns="http://www.w3.org/2000/svg">
<g clip-path="url(#clip0)">
<path d="M156.903 0.755737H56.5015C41.8242 0.755737 29.8936 12.6952 29.8936 27.3637V224.147C29.8936 238.816 41.8242 250.756 56.5015 250.756H193.498C208.158 250.756 220.106 238.816 220.106 224.147V63.7297L156.903 0.755737ZM193.498 234.452H56.5015C50.8133 234.452 46.1881 229.835 46.1881 224.147V27.3637C46.1881 21.6843 50.8133 17.0669 56.5015 17.0669L150.807 16.9694V51.8229C150.807 62.0134 159.077 70.2843 169.26 70.2843L203.419 70.1863L203.796 224.148C203.796 229.835 199.186 234.452 193.498 234.452Z" fill="#00923C"/>
<path d="M120.555 48.0594C120.555 45.6462 118.598 43.6888 116.184 43.6888H65.6441C63.2303 43.6888 61.2734 45.6462 61.2734 48.0594V98.594C61.2734 101.007 63.2303 102.965 65.6441 102.965H116.184C118.598 102.965 120.555 101.008 120.555 98.594V48.0594Z" fill="#00923C"/>
<path d="M120.555 214.774C120.555 217.188 122.512 219.145 124.925 219.145H183.823C186.236 219.145 188.193 217.189 188.193 214.774V168.482C188.193 166.068 186.236 164.111 183.823 164.111H124.925C122.512 164.111 120.555 166.068 120.555 168.482V214.774V214.774ZM133.106 176.664H175.642V206.594H133.106V176.664Z" fill="#00923C"/>
<path d="M178.429 113.203H68.2527C64.7874 113.203 61.9771 116.014 61.9771 119.48C61.9771 122.945 64.788 125.756 68.2527 125.756H178.429C181.895 125.756 184.705 122.945 184.705 119.48C184.705 116.014 181.894 113.203 178.429 113.203Z" fill="#00923C"/>
<path d="M135.199 100.651H178.429C181.895 100.651 184.705 97.8401 184.705 94.3748C184.705 90.9095 181.894 88.0986 178.429 88.0986H135.199C131.733 88.0986 128.922 90.9095 128.922 94.3748C128.922 97.8401 131.733 100.651 135.199 100.651Z" fill="#00923C"/>
<path d="M178.429 138.308H68.2527C64.7874 138.308 61.9771 141.119 61.9771 144.584C61.9771 148.049 64.788 150.86 68.2527 150.86H178.429C181.895 150.86 184.705 148.049 184.705 144.584C184.705 141.119 181.894 138.308 178.429 138.308Z" fill="#00923C"/>
<path d="M103.115 163.412H68.2532C64.7879 163.412 61.9775 166.223 61.9775 169.689C61.9775 173.154 64.7884 175.965 68.2532 175.965H103.115C106.58 175.965 109.392 173.154 109.392 169.689C109.391 166.223 106.58 163.412 103.115 163.412Z" fill="#00923C"/>
<path d="M103.115 188.517H68.2532C64.7879 188.517 61.9775 191.328 61.9775 194.793C61.9775 198.258 64.7884 201.069 68.2532 201.069H103.115C106.58 201.069 109.392 198.258 109.392 194.793C109.391 191.328 106.58 188.517 103.115 188.517Z" fill="#00923C"/>
</g>
<defs>
<clipPath id="clip0">
<rect width="250" height="250" fill="white" transform="translate(0 0.755737)"/>
</clipPath>
</defs>
</svg>
