<svg width="300" height="301" viewBox="0 0 300 301" fill="none" xmlns="http://www.w3.org/2000/svg">
<path d="M294.731 117.477L257.194 85.5365V34.4545C257.194 28.7022 252.711 24.0216 247.201 24.0216H223.582C218.073 24.0216 213.59 28.7022 213.59 34.4545V48.4316L163.433 5.75278C159.805 2.66656 155.023 0.966003 149.968 0.966003C144.934 0.966003 140.174 2.65612 136.566 5.72622L5.26892 117.476C-0.696704 122.551 -0.338785 126.972 0.405215 129.155C1.1474 131.334 3.53746 134.989 11.2009 134.989H29.1796V281.947C29.1796 292.435 37.3299 300.966 47.348 300.966H104.125C114.058 300.966 121.839 292.611 121.839 281.947V221.682C121.839 216.517 126.386 211.814 131.377 211.814H169.531C174.289 211.814 178.161 216.241 178.161 221.682V281.947C178.161 292.256 186.689 300.966 196.784 300.966H252.652C262.67 300.966 270.82 292.434 270.82 281.947V134.989H288.799C296.463 134.989 298.852 131.334 299.595 129.155C300.339 126.972 300.697 122.551 294.731 117.477Z" fill="#00923C"/>
</svg>
