<svg width="1000" height="1000" viewBox="0 0 1000 1000" fill="none" xmlns="http://www.w3.org/2000/svg">
<path d="M499.989 400.566C445.176 400.566 400.544 445.176 400.544 499.989C400.544 554.824 445.176 599.456 499.989 599.456C554.824 599.456 599.434 554.824 599.434 499.989C599.434 445.176 554.824 400.566 499.989 400.566ZM499.989 400.566C445.176 400.566 400.544 445.176 400.544 499.989C400.544 554.824 445.176 599.456 499.989 599.456C554.824 599.456 599.434 554.824 599.434 499.989C599.434 445.176 554.824 400.566 499.989 400.566ZM665.657 238.431H334.343C281.46 238.431 238.431 281.46 238.431 334.343V665.657C238.431 718.539 281.46 761.569 334.343 761.569H665.657C718.539 761.569 761.569 718.539 761.569 665.657V334.343C761.569 281.46 718.539 238.431 665.657 238.431ZM499.989 672.218C405.042 672.218 327.782 594.958 327.782 499.989C327.782 405.042 405.042 327.782 499.989 327.782C594.958 327.782 672.218 405.042 672.218 499.989C672.218 594.958 594.958 672.218 499.989 672.218ZM677.748 363.395C655.278 363.395 637 345.117 637 322.647C637 300.178 655.278 281.899 677.748 281.899C700.217 281.899 718.496 300.178 718.496 322.647C718.496 345.117 700.217 363.395 677.748 363.395ZM499.989 400.566C445.176 400.566 400.544 445.176 400.544 499.989C400.544 554.824 445.176 599.456 499.989 599.456C554.824 599.456 599.434 554.824 599.434 499.989C599.434 445.176 554.824 400.566 499.989 400.566ZM665.657 238.431H334.343C281.46 238.431 238.431 281.46 238.431 334.343V665.657C238.431 718.539 281.46 761.569 334.343 761.569H665.657C718.539 761.569 761.569 718.539 761.569 665.657V334.343C761.569 281.46 718.539 238.431 665.657 238.431ZM499.989 672.218C405.042 672.218 327.782 594.958 327.782 499.989C327.782 405.042 405.042 327.782 499.989 327.782C594.958 327.782 672.218 405.042 672.218 499.989C672.218 594.958 594.958 672.218 499.989 672.218ZM677.748 363.395C655.278 363.395 637 345.117 637 322.647C637 300.178 655.278 281.899 677.748 281.899C700.217 281.899 718.496 300.178 718.496 322.647C718.496 345.117 700.217 363.395 677.748 363.395ZM499.989 400.566C445.176 400.566 400.544 445.176 400.544 499.989C400.544 554.824 445.176 599.456 499.989 599.456C554.824 599.456 599.434 554.824 599.434 499.989C599.434 445.176 554.824 400.566 499.989 400.566ZM0 0V1000H1000V0H0ZM834.332 665.657C834.332 758.673 758.673 834.332 665.657 834.332H334.343C241.327 834.332 165.668 758.673 165.668 665.657V334.343C165.668 241.327 241.327 165.668 334.343 165.668H665.657C758.673 165.668 834.332 241.327 834.332 334.343V665.657ZM665.657 238.431H334.343C281.46 238.431 238.431 281.46 238.431 334.343V665.657C238.431 718.539 281.46 761.569 334.343 761.569H665.657C718.539 761.569 761.569 718.539 761.569 665.657V334.343C761.569 281.46 718.539 238.431 665.657 238.431ZM499.989 672.218C405.042 672.218 327.782 594.958 327.782 499.989C327.782 405.042 405.042 327.782 499.989 327.782C594.958 327.782 672.218 405.042 672.218 499.989C672.218 594.958 594.958 672.218 499.989 672.218ZM677.748 363.395C655.278 363.395 637 345.117 637 322.647C637 300.178 655.278 281.899 677.748 281.899C700.217 281.899 718.496 300.178 718.496 322.647C718.496 345.117 700.217 363.395 677.748 363.395ZM499.989 400.566C445.176 400.566 400.544 445.176 400.544 499.989C400.544 554.824 445.176 599.456 499.989 599.456C554.824 599.456 599.434 554.824 599.434 499.989C599.434 445.176 554.824 400.566 499.989 400.566ZM499.989 400.566C445.176 400.566 400.544 445.176 400.544 499.989C400.544 554.824 445.176 599.456 499.989 599.456C554.824 599.456 599.434 554.824 599.434 499.989C599.434 445.176 554.824 400.566 499.989 400.566ZM499.989 400.566C445.176 400.566 400.544 445.176 400.544 499.989C400.544 554.824 445.176 599.456 499.989 599.456C554.824 599.456 599.434 554.824 599.434 499.989C599.434 445.176 554.824 400.566 499.989 400.566ZM665.657 238.431H334.343C281.46 238.431 238.431 281.46 238.431 334.343V665.657C238.431 718.539 281.46 761.569 334.343 761.569H665.657C718.539 761.569 761.569 718.539 761.569 665.657V334.343C761.569 281.46 718.539 238.431 665.657 238.431ZM499.989 672.218C405.042 672.218 327.782 594.958 327.782 499.989C327.782 405.042 405.042 327.782 499.989 327.782C594.958 327.782 672.218 405.042 672.218 499.989C672.218 594.958 594.958 672.218 499.989 672.218ZM677.748 363.395C655.278 363.395 637 345.117 637 322.647C637 300.178 655.278 281.899 677.748 281.899C700.217 281.899 718.496 300.178 718.496 322.647C718.496 345.117 700.217 363.395 677.748 363.395ZM499.989 400.566C445.176 400.566 400.544 445.176 400.544 499.989C400.544 554.824 445.176 599.456 499.989 599.456C554.824 599.456 599.434 554.824 599.434 499.989C599.434 445.176 554.824 400.566 499.989 400.566ZM499.989 400.566C445.176 400.566 400.544 445.176 400.544 499.989C400.544 554.824 445.176 599.456 499.989 599.456C554.824 599.456 599.434 554.824 599.434 499.989C599.434 445.176 554.824 400.566 499.989 400.566ZM499.989 400.566C445.176 400.566 400.544 445.176 400.544 499.989C400.544 554.824 445.176 599.456 499.989 599.456C554.824 599.456 599.434 554.824 599.434 499.989C599.434 445.176 554.824 400.566 499.989 400.566ZM665.657 238.431H334.343C281.46 238.431 238.431 281.46 238.431 334.343V665.657C238.431 718.539 281.46 761.569 334.343 761.569H665.657C718.539 761.569 761.569 718.539 761.569 665.657V334.343C761.569 281.46 718.539 238.431 665.657 238.431ZM499.989 672.218C405.042 672.218 327.782 594.958 327.782 499.989C327.782 405.042 405.042 327.782 499.989 327.782C594.958 327.782 672.218 405.042 672.218 499.989C672.218 594.958 594.958 672.218 499.989 672.218ZM677.748 363.395C655.278 363.395 637 345.117 637 322.647C637 300.178 655.278 281.899 677.748 281.899C700.217 281.899 718.496 300.178 718.496 322.647C718.496 345.117 700.217 363.395 677.748 363.395ZM499.989 400.566C445.176 400.566 400.544 445.176 400.544 499.989C400.544 554.824 445.176 599.456 499.989 599.456C554.824 599.456 599.434 554.824 599.434 499.989C599.434 445.176 554.824 400.566 499.989 400.566Z" fill="#00923C"/>
</svg>
