<svg width="1208" height="1272" viewBox="0 0 1208 1272" fill="none" xmlns="http://www.w3.org/2000/svg">
<path d="M247.151 996.51L69.9648 1118.88V1269.79H1162.08V1120.91L975.834 996.51" stroke="#11753C" stroke-width="4" stroke-miterlimit="10"/>
<path d="M69.9418 1118.88H1162.08" stroke="#11753C" stroke-width="4" stroke-miterlimit="10"/>
<path d="M39.7908 412.872H1167.71L1182.99 277.34L602.794 2.65479L20.1522 281.614L39.7908 412.872Z" stroke="#0D7E3F" stroke-width="4" stroke-miterlimit="10"/>
<path d="M47.5538 415.582L103.374 387.23L236.315 319.66L397.513 237.731L536.808 166.825L582.578 143.581C589.671 139.958 597.665 136.988 604.365 132.506C604.68 132.319 605.003 132.154 605.335 132.01H599.513L655.264 160.258L789.106 228.011L950.951 310.148L1090.38 380.767L1136.45 404.22C1143.39 407.764 1150.8 412.742 1158.2 415.217C1158.53 415.361 1158.85 415.527 1159.17 415.712C1160.14 411.673 1161.11 407.634 1162.1 403.569H90.0656C75.5792 403.569 61.0698 403.256 46.6066 403.569H44.6889C37.2725 403.569 37.2494 416.598 44.6889 416.598H1116.72C1131.21 416.598 1145.72 416.885 1160.18 416.598H1162.1C1167.44 416.598 1170.44 407.217 1165.01 404.481L1109.26 376.233L974.933 308.063L813.065 226.083L673.447 155.359C651.036 143.997 628.671 132.48 606.167 121.274C601.107 118.668 596.279 122.499 591.565 124.896L557.071 142.434L430.852 206.591L269.978 288.337L124.722 362.266L45.4514 402.474L41.8009 404.351C35.0314 407.764 40.8998 419.022 47.6232 415.582" fill="#0D7E3F"/>
<path d="M219.426 361.692H982.465L600.945 171.359L219.426 361.692Z" fill="#0E9347"/>
<path d="M293.267 418.11V1112.42H568.992V759.193H440.626V1082.06H414.402V418.11H293.267Z" fill="#0E9347" stroke="#F7F9F8" stroke-miterlimit="10"/>
<path d="M633.777 426.292V717.342C633.789 719.932 634.709 722.411 636.337 724.237C637.965 726.063 640.168 727.088 642.464 727.088H751.053C752.193 727.088 753.322 726.835 754.374 726.342C755.427 725.849 756.383 725.127 757.188 724.217C757.993 723.307 758.631 722.227 759.065 721.038C759.499 719.849 759.721 718.576 759.718 717.29L760.595 448.651C760.595 446.059 761.508 443.573 763.133 441.741C764.758 439.908 766.962 438.878 769.26 438.878H780.812C781.954 438.878 783.086 439.133 784.141 439.627C785.197 440.121 786.156 440.845 786.963 441.758C787.77 442.67 788.409 443.753 788.844 444.945C789.279 446.137 789.502 447.414 789.499 448.703V754.633C789.502 755.921 789.279 757.198 788.844 758.39C788.409 759.582 787.77 760.665 786.963 761.578C786.156 762.49 785.197 763.214 784.141 763.708C783.086 764.202 781.954 764.457 780.812 764.457H642.464C640.16 764.457 637.95 765.489 636.321 767.327C634.692 769.164 633.777 771.656 633.777 774.255V1102.6C633.774 1103.88 633.996 1105.16 634.431 1106.35C634.866 1107.54 635.506 1108.63 636.313 1109.54C637.12 1110.45 638.078 1111.18 639.134 1111.67C640.189 1112.17 641.321 1112.42 642.464 1112.42H904.789C905.932 1112.42 907.063 1112.17 908.119 1111.67C909.174 1111.18 910.133 1110.45 910.94 1109.54C911.747 1108.63 912.386 1107.54 912.821 1106.35C913.257 1105.16 913.479 1103.88 913.476 1102.6V426.292C913.479 425.003 913.257 423.726 912.821 422.535C912.386 421.343 911.747 420.26 910.94 419.347C910.133 418.434 909.174 417.71 908.119 417.216C907.063 416.722 905.932 416.468 904.789 416.468H642.464C641.321 416.468 640.189 416.722 639.134 417.216C638.078 417.71 637.12 418.434 636.313 419.347C635.506 420.26 634.866 421.343 634.431 422.535C633.996 423.726 633.774 425.003 633.777 426.292ZM782.729 1088.91H767.55C765.246 1088.91 763.036 1087.88 761.407 1086.04C759.778 1084.21 758.863 1081.71 758.863 1079.12V792.235C758.86 790.946 759.082 789.67 759.517 788.478C759.952 787.286 760.592 786.203 761.399 785.29C762.206 784.378 763.165 783.654 764.22 783.16C765.276 782.666 766.407 782.411 767.55 782.411H782.729C783.872 782.411 785.004 782.666 786.059 783.16C787.115 783.654 788.073 784.378 788.88 785.29C789.687 786.203 790.327 787.286 790.762 788.478C791.197 789.67 791.42 790.946 791.416 792.235V1079.12C791.416 1081.71 790.501 1084.21 788.872 1086.04C787.243 1087.88 785.033 1088.91 782.729 1088.91Z" fill="#0E9347" stroke="#F7F9F8" stroke-miterlimit="10"/>
<path d="M232.125 1224.64H264.469V1232H223.078V1163.75H232.125V1224.64ZM284.391 1232H275.391V1163.75H284.391V1232ZM338.531 1201.86H309.891V1232H300.891V1163.75H343.172V1171.16H309.891V1194.5H338.531V1201.86ZM392.531 1200.45H362.953V1224.64H397.312V1232H353.953V1163.75H396.844V1171.16H362.953V1193.09H392.531V1200.45ZM441.984 1232H432.984V1163.75H441.984V1232ZM478.594 1201.58C470.875 1199.36 465.25 1196.64 461.719 1193.42C458.219 1190.17 456.469 1186.17 456.469 1181.42C456.469 1176.05 458.609 1171.61 462.891 1168.11C467.203 1164.58 472.797 1162.81 479.672 1162.81C484.359 1162.81 488.531 1163.72 492.188 1165.53C495.875 1167.34 498.719 1169.84 500.719 1173.03C502.75 1176.22 503.766 1179.7 503.766 1183.48H494.719C494.719 1179.36 493.406 1176.12 490.781 1173.78C488.156 1171.41 484.453 1170.22 479.672 1170.22C475.234 1170.22 471.766 1171.2 469.266 1173.17C466.797 1175.11 465.562 1177.81 465.562 1181.28C465.562 1184.06 466.734 1186.42 469.078 1188.36C471.453 1190.27 475.469 1192.02 481.125 1193.61C486.812 1195.2 491.25 1196.97 494.438 1198.91C497.656 1200.81 500.031 1203.05 501.562 1205.61C503.125 1208.17 503.906 1211.19 503.906 1214.66C503.906 1220.19 501.75 1224.62 497.438 1227.97C493.125 1231.28 487.359 1232.94 480.141 1232.94C475.453 1232.94 471.078 1232.05 467.016 1230.27C462.953 1228.45 459.812 1225.98 457.594 1222.86C455.406 1219.73 454.312 1216.19 454.312 1212.22H463.359C463.359 1216.34 464.875 1219.61 467.906 1222.02C470.969 1224.39 475.047 1225.58 480.141 1225.58C484.891 1225.58 488.531 1224.61 491.062 1222.67C493.594 1220.73 494.859 1218.09 494.859 1214.75C494.859 1211.41 493.688 1208.83 491.344 1207.02C489 1205.17 484.75 1203.36 478.594 1201.58ZM548.344 1224.64H580.688V1232H539.297V1163.75H548.344V1224.64ZM629.531 1200.45H599.953V1224.64H634.312V1232H590.953V1163.75H633.844V1171.16H599.953V1193.09H629.531V1200.45ZM683.203 1214.19H654.609L648.188 1232H638.906L664.969 1163.75H672.844L698.953 1232H689.719L683.203 1214.19ZM657.328 1206.78H680.531L668.906 1174.86L657.328 1206.78ZM733.172 1204.39H717.141V1232H708.094V1163.75H730.688C738.375 1163.75 744.281 1165.5 748.406 1169C752.562 1172.5 754.641 1177.59 754.641 1184.28C754.641 1188.53 753.484 1192.23 751.172 1195.39C748.891 1198.55 745.703 1200.91 741.609 1202.47L757.641 1231.44V1232H747.984L733.172 1204.39ZM717.141 1197.03H730.969C735.438 1197.03 738.984 1195.88 741.609 1193.56C744.266 1191.25 745.594 1188.16 745.594 1184.28C745.594 1180.06 744.328 1176.83 741.797 1174.58C739.297 1172.33 735.672 1171.19 730.922 1171.16H717.141V1197.03ZM819.75 1232H810.703L776.344 1179.41V1232H767.297V1163.75H776.344L810.797 1216.58V1163.75H819.75V1232ZM845.391 1232H836.391V1163.75H845.391V1232ZM914.344 1232H905.297L870.938 1179.41V1232H861.891V1163.75H870.938L905.391 1216.58V1163.75H914.344V1232ZM980.719 1223.05C978.406 1226.36 975.172 1228.84 971.016 1230.5C966.891 1232.12 962.078 1232.94 956.578 1232.94C951.016 1232.94 946.078 1231.64 941.766 1229.05C937.453 1226.42 934.109 1222.7 931.734 1217.89C929.391 1213.08 928.188 1207.5 928.125 1201.16V1195.2C928.125 1184.92 930.516 1176.95 935.297 1171.3C940.109 1165.64 946.859 1162.81 955.547 1162.81C962.672 1162.81 968.406 1164.64 972.75 1168.3C977.094 1171.92 979.75 1177.08 980.719 1183.77H971.719C970.031 1174.73 964.656 1170.22 955.594 1170.22C949.562 1170.22 944.984 1172.34 941.859 1176.59C938.766 1180.81 937.203 1186.94 937.172 1194.97V1200.55C937.172 1208.2 938.922 1214.3 942.422 1218.83C945.922 1223.33 950.656 1225.58 956.625 1225.58C960 1225.58 962.953 1225.2 965.484 1224.45C968.016 1223.7 970.109 1222.44 971.766 1220.66V1205.33H955.969V1198.02H980.719V1223.05Z" fill="#0D8443"/>
<path d="M195.334 297.487L168.583 311.118L149.831 264.321L159.949 259.166L175.275 297.412L191.908 288.937L195.334 297.487ZM228.35 280.665L201.411 294.391L182.659 247.594L208.564 234.395L212.004 242.978L196.216 251.022L200.388 261.432L215.079 253.946L218.505 262.496L203.814 269.982L208.103 280.686L224.924 272.115L228.35 280.665ZM275.055 256.868L264.029 262.486L256.662 253.704L240.687 261.843L241.695 273.866L230.731 279.452L228.33 224.324L240.327 218.211L275.055 256.868ZM251.101 246.792L239.974 233.52C239.148 232.526 238.336 231.251 237.536 229.693L237.285 229.821C237.73 231.245 238.014 232.738 238.136 234.299L239.605 252.649L251.101 246.792ZM318.346 234.81L306.724 240.731L294.913 232.249C294.025 231.601 293.197 231.041 292.429 230.567C291.661 230.094 290.926 229.735 290.225 229.49C289.535 229.213 288.866 229.082 288.219 229.097C287.583 229.081 286.953 229.232 286.326 229.551L283.601 230.939L290.78 248.855L280.662 254.011L261.91 207.214L277.948 199.042C288.849 193.488 295.999 194.953 299.399 203.438C300.053 205.07 300.419 206.704 300.497 208.341C300.566 209.956 300.384 211.542 299.951 213.099C299.519 214.655 298.837 216.155 297.907 217.598C296.997 219.031 295.872 220.364 294.531 221.598L294.583 221.729C295.338 221.606 296.13 221.635 296.957 221.816C297.775 221.975 298.607 222.232 299.453 222.587C300.3 222.942 301.136 223.367 301.964 223.862C302.803 224.325 303.586 224.804 304.312 225.299L318.346 234.81ZM275.192 209.956L280.41 222.977L284.795 220.742C286.967 219.636 288.45 218.095 289.242 216.119C290.047 214.111 290.057 212.128 289.272 210.17C287.633 206.08 284.464 205.232 279.766 207.626L275.192 209.956ZM362.983 212.066L352.771 217.269L322.476 197.299C320.701 196.134 319.431 195.222 318.665 194.565L318.539 194.629C319.369 196.197 320.464 198.678 321.824 202.072L332.128 227.787L322.574 232.655L303.822 185.859L314.723 180.304L343.963 199.712C345.292 200.581 346.553 201.47 347.748 202.381L347.873 202.317C347.27 201.314 346.328 199.214 345.047 196.016L334.677 170.137L344.231 165.269L362.983 212.066ZM400.196 193.105L373.257 206.831L354.505 160.034L380.41 146.835L383.85 155.418L368.062 163.462L372.234 173.872L386.925 166.386L390.351 174.936L375.66 182.422L379.949 193.126L396.77 184.555L400.196 193.105ZM445.084 170.233L433.463 176.155L421.652 167.672C420.764 167.024 419.936 166.464 419.168 165.991C418.4 165.518 417.665 165.158 416.963 164.913C416.274 164.636 415.605 164.505 414.958 164.521C414.322 164.504 413.691 164.655 413.065 164.974L410.34 166.363L417.519 184.279L407.401 189.434L388.649 142.637L404.687 134.466C415.588 128.911 422.738 130.376 426.138 138.861C426.792 140.493 427.158 142.127 427.235 143.764C427.304 145.38 427.123 146.966 426.69 148.522C426.258 150.079 425.576 151.578 424.646 153.022C423.736 154.455 422.611 155.788 421.269 157.021L421.322 157.152C422.077 157.029 422.868 157.058 423.695 157.239C424.514 157.399 425.346 157.656 426.192 158.011C427.038 158.365 427.875 158.79 428.702 159.286C429.542 159.749 430.325 160.228 431.051 160.722L445.084 170.233ZM401.931 145.379L407.149 158.4L411.534 156.166C413.706 155.059 415.188 153.518 415.981 151.542C416.785 149.534 416.796 147.551 416.011 145.593C414.372 141.503 411.203 140.655 406.504 143.049L401.931 145.379ZM446.526 167.337L442.342 156.895C444.795 157.557 447.248 157.748 449.701 157.468C452.145 157.166 454.452 156.461 456.624 155.355C457.898 154.706 458.957 154.022 459.801 153.304C460.665 152.575 461.328 151.844 461.789 151.112C462.262 150.347 462.542 149.602 462.629 148.876C462.706 148.129 462.61 147.419 462.34 146.744C461.974 145.831 461.396 145.142 460.607 144.68C459.818 144.217 458.863 143.905 457.742 143.743C456.642 143.57 455.383 143.504 453.966 143.544C452.549 143.585 451.034 143.663 449.42 143.778C445.302 144.043 441.936 143.518 439.322 142.204C436.729 140.879 434.809 138.661 433.562 135.55C432.586 133.113 432.219 130.785 432.461 128.566C432.695 126.325 433.389 124.229 434.544 122.279C435.719 120.317 437.267 118.533 439.188 116.926C441.1 115.296 443.247 113.875 445.627 112.662C447.966 111.47 450.095 110.569 452.013 109.959C453.943 109.316 455.792 108.911 457.561 108.743L461.471 118.501C460.501 118.34 459.484 118.281 458.421 118.326C457.378 118.359 456.334 118.485 455.29 118.703C454.237 118.899 453.214 119.171 452.222 119.519C451.251 119.857 450.348 120.238 449.513 120.664C448.364 121.249 447.368 121.901 446.524 122.619C445.671 123.315 445.004 124.035 444.523 124.778C444.041 125.521 443.74 126.277 443.621 127.046C443.492 127.792 443.572 128.524 443.86 129.242C444.173 130.025 444.655 130.631 445.305 131.06C445.946 131.467 446.745 131.767 447.702 131.961C448.651 132.132 449.757 132.224 451.019 132.236C452.272 132.226 453.67 132.168 455.212 132.064C457.322 131.932 459.266 131.95 461.043 132.119C462.833 132.255 464.462 132.617 465.93 133.205C467.397 133.793 468.691 134.667 469.809 135.826C470.918 136.963 471.853 138.479 472.611 140.371C473.657 142.982 474.057 145.424 473.812 147.698C473.578 149.939 472.869 152.029 471.685 153.968C470.492 155.886 468.905 157.638 466.925 159.223C464.966 160.797 462.786 162.196 460.384 163.42C457.92 164.676 455.484 165.655 453.075 166.359C450.687 167.051 448.504 167.378 446.526 167.337ZM476.602 96.487L476.362 114.057L470.285 117.153L468.05 100.844L476.602 96.487Z" fill="#0D8443"/>
<path d="M765.002 174.129L753.976 168.511L754.928 156.463L738.953 148.323L731.642 157.131L720.678 151.544L755.672 113.035L767.669 119.148L765.002 174.129ZM755.834 147.181L757.276 128.979C757.389 127.622 757.698 126.09 758.201 124.382L757.951 124.254C757.3 125.573 756.498 126.801 755.543 127.938L744.338 141.323L755.834 147.181ZM803.474 191.727C799.537 191.712 794.926 190.358 789.643 187.666C782.752 184.155 778.173 179.281 775.908 173.046C773.642 166.81 773.909 160.175 776.708 153.141C779.69 145.65 784.321 140.703 790.603 138.298C796.906 135.905 803.597 136.511 810.676 140.118C815.062 142.353 818.528 144.813 821.076 147.5L817.033 157.658C814.771 154.253 811.719 151.572 807.877 149.614C803.658 147.465 799.704 147.113 796.014 148.559C792.324 150.006 789.538 153.091 787.658 157.817C785.855 162.346 785.638 166.584 787.007 170.529C788.384 174.452 791.14 177.467 795.275 179.574C799.222 181.585 803.233 182.424 807.309 182.091L803.474 191.727ZM850.142 217.51L839.116 211.892L840.068 199.844L824.093 191.704L816.782 200.512L805.818 194.925L840.812 156.416L852.809 162.529L850.142 217.51ZM840.974 190.562L842.416 172.36C842.529 171.003 842.837 169.471 843.341 167.763L843.091 167.635C842.44 168.954 841.638 170.182 840.683 171.319L829.478 184.704L840.974 190.562ZM855.749 220.367L874.391 173.526L890.304 181.634C906.259 189.763 911.207 201.439 905.149 216.66C902.246 223.955 897.745 228.668 891.647 230.8C885.57 232.942 878.909 232.167 871.662 228.475L855.749 220.367ZM881.09 187.272L869.273 216.964L874.285 219.518C878.67 221.752 882.652 222.13 886.229 220.653C889.827 219.186 892.566 216.09 894.447 211.364C896.223 206.9 896.376 202.761 894.905 198.947C893.464 195.122 890.508 192.071 886.039 189.794L881.09 187.272ZM929.988 258.193L903.049 244.467L921.691 197.626L947.597 210.826L944.178 219.417L928.39 211.372L924.243 221.792L938.934 229.278L935.528 237.836L920.837 230.35L916.573 241.064L933.394 249.635L929.988 258.193ZM988.377 287.944L978.385 282.852L989.539 254.826C990.743 251.799 992.199 248.521 993.905 244.99L993.655 244.862C991.989 247.471 990.696 249.3 989.775 250.35L966.575 276.835L958.306 272.622L960.138 235.642C960.183 234.644 960.58 232.227 961.328 228.391L961.046 228.247C959.48 233.002 958.004 237.122 956.617 240.606L946.308 266.509L937.193 261.864L955.835 215.023L970.651 222.573L968.779 255.014C968.626 257.608 968.271 260.111 967.712 262.524L967.9 262.62C969.495 260.316 970.987 258.365 972.376 256.768L992.579 233.745L1007.02 241.103L988.377 287.944ZM1051.09 263.56L1024.45 286.288L1017.82 302.947L1007.7 297.791L1014.26 281.329L1012.09 243.689L1023.65 249.578L1023.93 270.741C1023.93 271.131 1023.77 272.58 1023.45 275.089L1023.57 275.153C1024.47 273.723 1025.28 272.658 1026.01 271.956L1040.38 258.101L1051.09 263.56Z" fill="#0D8443"/>
</svg>
