<svg width="300" height="301" viewBox="0 0 300 301" fill="none" xmlns="http://www.w3.org/2000/svg">
<path d="M2.27162 94.4779L172.224 0.772037C174.199 -0.330276 176.587 0.622571 177.517 2.89259L214.506 92.2453H194.352L167.206 26.5923L19.8593 107.827L65.937 219.133L91.8775 204.84L91.8775 263.683L75.9247 272.473C73.9337 273.585 71.5784 272.585 70.6314 270.306L0.393884 100.559C-0.561178 98.2987 0.280559 95.5616 2.27162 94.4779Z" fill="#00923C"/>
<path d="M107.66 103.037L296.018 103.037C298.195 103.037 300 105.083 300 107.595V295.726C300 298.249 298.195 300.313 296.018 300.313H107.668C105.475 300.313 103.686 298.249 103.686 295.726L103.686 107.595C103.678 105.083 105.467 103.037 107.66 103.037ZM118.538 247.215H130.476C137.429 226.636 145.984 197.826 158.975 201.675C174.199 206.159 181.799 247.215 181.799 247.215C181.799 247.215 189.593 200.89 211.074 176.088C232.563 151.286 253.38 247.215 253.38 247.215H281.821V123.841L118.538 123.841V247.215Z" fill="#00923C"/>
<path d="M255.469 165.692C248.111 165.692 242.146 158.807 242.146 150.315C242.146 141.823 248.111 134.939 255.469 134.939C262.826 134.939 268.791 141.823 268.791 150.315C268.791 158.807 262.826 165.692 255.469 165.692Z" fill="#00923C"/>
<path d="M166.089 161.169C163.102 161.169 160.302 160.805 157.809 160.235C154.903 161.655 151.358 162.524 147.546 162.524C137.712 162.524 129.764 156.984 129.764 150.146C129.764 143.327 137.712 137.787 147.546 137.787C151.229 137.787 154.644 138.563 157.477 139.917C158.651 138.6 160.213 137.787 161.953 137.787H164.527C167.829 137.787 170.427 140.674 170.799 144.345C178.748 145.307 184.664 148.633 184.664 152.594C184.664 157.33 176.352 161.169 166.089 161.169Z" fill="#00923C"/>
</svg>
