<svg width="250" height="201" viewBox="0 0 250 201" fill="none" xmlns="http://www.w3.org/2000/svg">
<path d="M227.816 56.4955C213.911 43.5254 195.499 36.3822 175.971 36.3822C164.164 36.3822 152.766 38.9984 142.525 43.9302C137.406 32.0909 128.866 21.6061 118.003 13.9763C105.213 4.99252 90.0066 0.244263 74.0291 0.244263C54.501 0.244263 36.0893 7.38742 22.1842 20.3576C7.87806 33.7003 0 51.5929 0 70.7378C0 87.9807 6.49133 104.392 18.3347 117.241L18.5362 159.246C18.5464 161.438 19.4617 163.566 21.0673 164.565C22.9735 165.753 24.7913 165.469 26.1245 164.624L61.9857 140.303C65.9617 140.921 70.0036 141.233 74.0291 141.233C74.0301 141.233 74.0311 141.233 74.0321 141.233C85.6903 141.233 97.1296 138.633 107.433 133.686C111.192 142.437 116.818 150.443 124.126 157.259C138.031 170.229 156.443 177.372 175.971 177.372C180.016 177.372 184.081 177.056 188.078 176.432L223.984 199.426C226.022 200.687 227.533 200.379 228.986 199.259C230.49 198.099 231.454 196.144 231.465 193.978L231.666 153.38C243.509 140.531 250 124.119 250 106.877C250 87.7321 242.122 69.8401 227.816 56.4955ZM74.0316 128.833C74.0306 128.833 74.0286 128.833 74.0286 128.833C69.874 128.833 65.7 128.46 61.6235 127.726C60.1638 127.465 58.7577 127.979 57.6883 129.017L28.6888 148.684L28.5255 114.472C28.5275 114.348 28.5255 114.223 28.5204 114.098C28.4536 112.356 27.7867 110.728 26.6816 109.615C16.0566 98.9006 10.2041 85.0936 10.2041 70.7378C10.2041 38.704 38.8362 12.6428 74.0291 12.6428C100.103 12.6428 123.676 27.4424 133.29 49.2215C130.064 51.3914 126.997 53.8173 124.126 56.4955C109.82 69.8395 101.942 87.7321 101.942 106.877C101.942 112.087 102.531 117.204 103.668 122.163C94.5597 126.536 84.4092 128.833 74.0316 128.833ZM223.318 145.754C222.214 146.867 221.547 148.496 221.48 150.237C221.475 150.35 221.474 150.463 221.474 150.575L221.311 183.698L192.218 165.068C191.161 164.088 189.795 163.61 188.375 163.865C184.297 164.601 180.124 164.973 175.97 164.973C147.15 164.973 122.735 147.494 114.836 123.571C114.803 123.455 114.761 123.341 114.722 123.226C113.048 118.037 112.145 112.551 112.145 106.877C112.145 86.2653 124.001 68.1278 141.83 57.8129C141.842 57.8067 141.856 57.803 141.868 57.7968C142.068 57.7013 142.257 57.5873 142.441 57.4651C152.191 51.9636 163.68 48.7814 175.97 48.7814C211.163 48.7814 239.795 74.8432 239.795 106.877C239.796 121.232 233.943 135.039 223.318 145.754Z" fill="#00923C"/>
<path d="M205.943 86.106H145.997C143.179 86.106 140.895 88.8815 140.895 92.3055C140.895 95.7296 143.179 98.5051 145.997 98.5051H205.943C208.76 98.5051 211.046 95.7296 211.046 92.3055C211.046 88.8815 208.761 86.106 205.943 86.106Z" fill="#00923C"/>
<path d="M205.943 114.174H145.997C143.179 114.174 140.895 116.949 140.895 120.373C140.895 123.798 143.179 126.573 145.997 126.573H205.943C208.76 126.573 211.046 123.798 211.046 120.373C211.046 116.949 208.761 114.174 205.943 114.174Z" fill="#00923C"/>
<path d="M227.816 56.4955C213.911 43.5254 195.499 36.3822 175.971 36.3822C164.164 36.3822 152.766 38.9984 142.525 43.9302C137.406 32.0909 128.866 21.6061 118.003 13.9763C105.213 4.99252 90.0066 0.244263 74.0291 0.244263C54.501 0.244263 36.0893 7.38742 22.1842 20.3576C7.87806 33.7003 0 51.5929 0 70.7378C0 87.9807 6.49133 104.392 18.3347 117.241L18.5362 159.246C18.5464 161.438 19.4617 163.566 21.0673 164.565C22.9735 165.753 24.7913 165.469 26.1245 164.624L61.9857 140.303C65.9617 140.921 70.0036 141.233 74.0291 141.233C74.0301 141.233 74.0311 141.233 74.0321 141.233C85.6903 141.233 97.1296 138.633 107.433 133.686C111.192 142.437 116.818 150.443 124.126 157.259C138.031 170.229 156.443 177.372 175.971 177.372C180.016 177.372 184.081 177.056 188.078 176.432L223.984 199.426C226.022 200.687 227.533 200.379 228.986 199.259C230.49 198.099 231.454 196.144 231.465 193.978L231.666 153.38C243.509 140.531 250 124.119 250 106.877C250 87.7321 242.122 69.8401 227.816 56.4955ZM74.0316 128.833C74.0306 128.833 74.0286 128.833 74.0286 128.833C69.874 128.833 65.7 128.46 61.6235 127.726C60.1638 127.465 58.7577 127.979 57.6883 129.017L28.6888 148.684L28.5255 114.472C28.5275 114.348 28.5255 114.223 28.5204 114.098C28.4536 112.356 27.7867 110.728 26.6816 109.615C16.0566 98.9006 10.2041 85.0936 10.2041 70.7378C10.2041 38.704 38.8362 12.6428 74.0291 12.6428C100.103 12.6428 123.676 27.4424 133.29 49.2215C130.064 51.3914 126.997 53.8173 124.126 56.4955C109.82 69.8395 101.942 87.7321 101.942 106.877C101.942 112.087 102.531 117.204 103.668 122.163C94.5597 126.536 84.4092 128.833 74.0316 128.833ZM223.318 145.754C222.214 146.867 221.547 148.496 221.48 150.237C221.475 150.35 221.474 150.463 221.474 150.575L221.311 183.698L192.218 165.068C191.161 164.088 189.795 163.61 188.375 163.865C184.297 164.601 180.124 164.973 175.97 164.973C147.15 164.973 122.735 147.494 114.836 123.571C114.803 123.455 114.761 123.341 114.722 123.226C113.048 118.037 112.145 112.551 112.145 106.877C112.145 74.2164 141.226 48.7814 175.97 48.7814C210.715 48.7814 239.796 74.8432 239.796 106.877C239.796 121.232 233.943 135.039 223.318 145.754Z" fill="#00923C"/>
<path d="M205.943 86.106H145.997C143.179 86.106 140.895 88.8815 140.895 92.3055C140.895 95.7296 143.179 98.5051 145.997 98.5051H205.943C208.76 98.5051 211.046 95.7296 211.046 92.3055C211.046 88.8815 208.761 86.106 205.943 86.106Z" fill="#00923C"/>
<path d="M205.943 114.174H145.997C143.179 114.174 140.895 116.949 140.895 120.373C140.895 123.798 143.179 126.573 145.997 126.573H205.943C208.76 126.573 211.046 123.798 211.046 120.373C211.046 116.949 208.761 114.174 205.943 114.174Z" fill="#00923C"/>
</svg>
