<svg width="512" height="512" viewBox="0 0 512 512" fill="none" xmlns="http://www.w3.org/2000/svg">
<path d="M120.998 40.998V78.941C136.22 89.471 146 109.278 146 131.001C146 144.711 142.099 157.651 135.402 167.986C138.867 169.336 142.508 170.836 145.552 172.158L267.904 149.375L273.822 204.217L162.074 227.436C161.212 243.697 159.624 259.698 156.785 279.002H493.002V40.998H120.998ZM96 88.998C79.405 88.998 63.998 106.745 63.998 131.002C63.998 155.259 79.405 173.004 96 173.004C112.595 173.004 128.002 155.259 128.002 131.002C128.002 106.745 112.595 88.998 96 88.998ZM252.096 170.627L143.504 190.847C129.264 185.245 138.548 187.812 122.035 182.33C114.559 187.799 105.705 191.002 96 191.002C87.4 191.002 79.47 188.479 72.572 184.102C63.982 187.666 54.917 192.192 46.836 196.756C33.844 204.094 23.114 209.967 18.998 212.789V343.002H39.002V232H56.998V495.002H87.002V326H104.998V495.002H131.002V323.162L131.156 322.338C140.67 271.698 143.744 244.954 144.617 212.682L254.177 189.916L252.096 170.627ZM153.943 297.002C152.991 302.684 151.952 308.642 150.797 314.998H478V297.002H153.943ZM208 344.998C191.405 344.998 175.998 362.745 175.998 387.002C175.998 405.2 184.668 419.732 196.008 425.857C199.607 424.195 203.49 423.151 207.688 423.006C212.321 422.846 216.668 423.773 220.74 425.426C231.708 419.074 240.002 404.796 240.002 387.002C240.002 362.745 224.595 344.998 208 344.998V344.998ZM320 344.998C303.405 344.998 287.998 362.745 287.998 387.002C287.998 405.2 296.668 419.732 308.008 425.857C311.607 424.195 315.49 423.151 319.688 423.006C324.321 422.846 328.668 423.773 332.74 425.426C343.708 419.074 352.002 404.796 352.002 387.002C352.002 362.745 336.595 344.998 320 344.998V344.998ZM432 344.998C415.405 344.998 399.998 362.745 399.998 387.002C399.998 405.2 408.668 419.732 420.008 425.857C423.607 424.195 427.49 423.151 431.688 423.006C436.321 422.846 440.668 423.773 444.74 425.426C455.708 419.074 464.002 404.796 464.002 387.002C464.002 362.745 448.595 344.998 432 344.998V344.998ZM208.312 440.994C204.468 441.127 199.405 443.924 194.012 449.779C188.618 455.634 183.316 464.029 178.887 472.539C174.661 480.659 171.278 488.699 168.827 495.002H254.166C251.126 488.566 247.028 480.453 242.033 472.291C236.735 463.633 230.522 455.153 224.365 449.334C218.208 443.515 212.565 440.847 208.312 440.994V440.994ZM320.312 440.994C316.468 441.127 311.405 443.924 306.012 449.779C300.618 455.634 295.316 464.029 290.887 472.539C286.661 480.659 283.278 488.699 280.827 495.002H366.166C363.126 488.566 359.028 480.453 354.033 472.291C348.735 463.633 342.522 455.153 336.365 449.334C330.208 443.515 324.565 440.847 320.313 440.994H320.312ZM432.312 440.994C428.468 441.127 423.405 443.924 418.012 449.779C412.618 455.634 407.316 464.029 402.887 472.539C398.661 480.659 395.278 488.699 392.827 495.002H478.166C475.126 488.566 471.028 480.453 466.033 472.291C460.735 463.633 454.522 455.153 448.365 449.334C442.208 443.515 436.565 440.847 432.313 440.994H432.312Z" fill="#00923C"/>
</svg>
